<svg xmlns="http://www.w3.org/2000/svg" width="99" height="155" viewBox="0 0 99 155">
  <metadata><?xpacket begin="﻿" id="W5M0MpCehiHzreSzNTczkc9d"?>
<x:xmpmeta xmlns:x="adobe:ns:meta/" x:xmptk="Adobe XMP Core 5.6-c138 79.159824, 2016/09/14-01:09:01        ">
   <rdf:RDF xmlns:rdf="http://www.w3.org/1999/02/22-rdf-syntax-ns#">
      <rdf:Description rdf:about=""/>
   </rdf:RDF>
</x:xmpmeta>
                        
<?xpacket end="w"?></metadata>
<defs>
    <style>
      .cls-1 {
        fill: #111;
        fill-rule: evenodd;
      }
    </style>
  </defs>
  <path class="cls-1" d="M92.58,133.705l-0.542-.169H91.214l-0.969.012-0.268-.15H89.429a0.338,0.338,0,0,1-.412-0.276,2.356,2.356,0,0,0,.412-0.967,1.536,1.536,0,0,0-.138-0.552l0.551,0.026,1.372-.164h0.275l0.543-.037,0.411-.06c0.3-.044.244-0.024,0.365-0.285A0.54,0.54,0,0,0,93,130.636l-0.007-.273-0.15-.375-0.72-.348c-0.349-.17-0.13-0.279.031-0.6a13.536,13.536,0,0,0,.715-1.641c0.15-.435.2-0.465-0.094-0.8l-0.181-.208c-0.133-.154-0.111-0.174-0.3-0.1l-0.265.1-0.2-.082a0.337,0.337,0,0,0-.383,0,1.7,1.7,0,0,0-.848.538c-0.429.434-.339,0.7-1,0.747l-0.3-.816c-0.809-.067-0.286-0.276-0.824-0.276h-0.55a3.129,3.129,0,0,0-.824-1.382,1.481,1.481,0,0,1-.961-0.276,4.079,4.079,0,0,1-.962.552H85.033c-0.477,0-.209-0.276-0.687-0.276H84c-0.373,0-.3-0.045-0.385.3a1.144,1.144,0,0,0-.1.532c0,0.528.042,0.05-.137,0.413-0.412-.092-0.825-0.183-1.237-0.276a12.76,12.76,0,0,0-2.074-1.09c-0.773-.281-1.78-0.514-2.459-0.842H75.692l-0.542.037-0.694.1c0.12-.452.687-1.1,0.687-1.381v-0.829l-0.3-.007L75,121.522v-0.69c-0.142-.27-1.1-1.6-1.1-1.658s0.5-1.553.55-1.657v-0.69a12.225,12.225,0,0,0,1.1-3.039,26.131,26.131,0,0,0,1.949-3.324l-0.163-.4s0.137-.258.137-0.276V109.37c-0.184-.387-0.184-0.672-0.412-1.106v-0.276c-0.01-.7,0-1.236,0-1.933v-0.138q-0.006-.488-0.012-0.973c0.05-.091.1-0.18,0.149-0.269-0.023-1.341.649-3.105,0.138-4.144,0.223-.163.643-0.712,0.927-1,0.484-.491.357-1.07,0.858-1.07h0.412a0.839,0.839,0,0,0,.687-0.691c-0.006-.182-0.012-0.365-0.018-0.547q-0.129-.418-0.257-0.834V95.837L79.962,95c-0.05-.09-0.1-0.179-0.149-0.27V92.936c0-.094,0-0.19,0-0.283L79.4,92.522c-0.022-.267.006-0.553-0.275-0.553A14.662,14.662,0,0,1,77.2,92.8a1.243,1.243,0,0,1-.962-0.691,9.085,9.085,0,0,0-2.61.967H72.669a2.488,2.488,0,0,1-1-.515c-0.474-.447-0.224-0.577-0.787-0.728V91.279c0.451-.165.56-0.69,0.824-0.69a0.934,0.934,0,0,1,.543.116l0.7-.266,0.268,0.15a6.536,6.536,0,0,0,2.246-2.16c0.525-.75,2.094-1.43,2.287-2.259-0.376-1.622-.646-1.1-1.241-2.2-0.283-.527-0.465-2.076-1.369-2.076-0.534,0-.725.879-1.511,0.966v-0.69c0-.039,1.227-3.008,1.4-3.324l-0.163-.4V78.16a0.747,0.747,0,0,1,.522-0.692l0.165-1.24V75.95q0.006-.273.012-0.548l0.412-1.254-0.149-.268a2.238,2.238,0,0,0,.735-1.333,3.032,3.032,0,0,1,.776-1.429c0.282,0.591-.091.519,0.549,0.69,0.053,0.64.11,0.456,0.55,0.69h0.55a2.257,2.257,0,0,0,.716-0.272q-0.083.481-.167,0.962V73.6q-0.018.272-.037,0.544l-0.1.7a1.107,1.107,0,0,0-1.328.875c-0.3.6-.549,0.97-0.825,1.518-0.508,1.006-1.037,2.005-1.556,2.993,0.559,1.062.461,0.526,1.375,0.969l0.5-.3q0.366-.75.733-1.5V78.989a1.182,1.182,0,0,1,.852-0.964q-0.083.619-.165,1.24c-0.024.229-.047,0.457-0.071,0.686q-0.019.669-.037,1.338l0.527,0.335,0.284-.171,0.4,0.3c0.509-.7.52,0.255,0.875-1.192,0.158-.645.38-1.2,0.5-1.708h0.412V78.575H82.7q-0.025,1.679-.05,3.356l-0.5-.732a1.565,1.565,0,0,0-.55-0.139c-0.517,0-1.244,2.393-1.511,2.9v0.277c0,0.094.008,0.189,0.012,0.283l-0.149.269V85.48a1.353,1.353,0,0,0,.824.69h0.138l0.272-.007,0.385-.139,0.168-.544V84.789c0.027-.056.682-2.292,0.687-2.348l0.246,0,0.166,1.1v1.381q-0.006.488-.012,0.974l0.149,0.269c0,1.14.415,2.155,0.4,3.322l0.149,0.268V90.45a0.587,0.587,0,0,0,.412.553,2.368,2.368,0,0,0,.961-0.277,30.4,30.4,0,0,1,.962,3.867v0.276a6.411,6.411,0,0,0,.687.553,1.5,1.5,0,0,0,.55-0.138c0.043-.162.138-0.377,0.138-0.415a4.449,4.449,0,0,0-.519-1.525Q86.628,93,86.544,92.66V91.969q-0.041-.342-0.081-0.686-0.028-.9-0.056-1.8H86.132V87.275c0.231,0.161.275,0.019,0.275,0.414v0.138c0.008,0.136.016,0.272,0.024,0.408,0.038,0.186.076,0.372,0.113,0.558,0.325,0.088.609,0.466,1.287,0.778a2.032,2.032,0,0,1,.6.5c0.466,0.354.39-.021,0.584,0.515a0.971,0.971,0,0,0,1.1.141c-0.1-1.172-.924-1.22-1.462-1.983a6.015,6.015,0,0,1-.692-0.961c-0.228-.462-0.24-0.884-0.456-1.337V86.031a10.274,10.274,0,0,0-.412-1.933c-0.032-.987-0.412-1.925-0.412-2.9-0.088-.183-0.687-1.351-0.687-1.381a0.541,0.541,0,0,1,.114-0.412,1.269,1.269,0,0,0,.413-1.063,19.718,19.718,0,0,0,.435-3.221c-0.023-1.6.549-3.349,0.549-4.833a1.421,1.421,0,0,0-.275-0.552,9.37,9.37,0,0,0,.412-1.243c0-.152,0-0.3,0-0.455,0-.368.1-0.465-0.26-0.568l-0.287-.081V66.56a18,18,0,0,0-.5-2.4,1.021,1.021,0,0,0-.374-0.867c-0.181-.187-0.555-0.8-0.8-0.662l-0.111.064a0.778,0.778,0,0,0-.687-0.415c-0.43,0-1.191,1.172-1.374,1.519H82.835a6.837,6.837,0,0,0-1.236-.415,9.234,9.234,0,0,1-.916,2.532c-0.462.952-.559,1.611-1.968,1.611,0.008-.185.016-0.369,0.023-0.553q-0.08-.9-0.161-1.794V64.488q-0.014-.272-0.028-0.545-0.139-.541-0.277-1.083l-0.39-.415c-0.227-.054-0.453-0.111-0.68-0.166a4.216,4.216,0,0,0-1.613,1.14,9.918,9.918,0,0,1-1.409,1.345,3.489,3.489,0,0,0-1.236-.552c-0.358-.538-1.374-0.758-1.374-1.381-0.006-.137-0.012-0.273-0.017-0.41L71.3,61.588V61.313q0-.141.006-0.28l-0.556-1.1c-0.556-.131-0.413-0.037-0.549-0.415H69.785a1.38,1.38,0,0,0-.962.829c-0.761.064-.613,0.35-1.374,0.415a5.248,5.248,0,0,1-2.2,1.38H64.679q0.08-.966.16-1.932-0.006-.764-0.012-1.527l0.149-.269q-0.006-.694-0.011-1.388l0.149-.269v-1.1a0.781,0.781,0,0,0-.687-0.69H64.152a1.172,1.172,0,0,0-.687.414c0,0.78-.275.6-0.275,1.381a2.241,2.241,0,0,1-.824,1.933V59.1a1.057,1.057,0,0,0-.962.829l-0.256,0L61,59.382l0.13-.416a0.538,0.538,0,0,0-.412-0.139c-0.477,0-.21.276-0.687,0.276l-0.282.011-0.267-.149H58.657a0.337,0.337,0,0,0-.412.413v1.105a15.616,15.616,0,0,1,1.1,2.072c0.754,0.063.414,0.119,0.687,0.691a10.147,10.147,0,0,0-.549,1.1V64.9a3.683,3.683,0,0,1-.389.832q-0.08.551-.161,1.1c-0.375.137-.282-0.007-0.412,0.553a1.983,1.983,0,0,0-.687-0.139,1.4,1.4,0,0,1-.55-0.277,0.528,0.528,0,0,0-.55.553H56.46a1.9,1.9,0,0,0-.959-1.65l-0.415.131q0.013,0.484.026,0.969-0.082.689-.164,1.379v0.691c0,0.584-1.626,1.459-2.329,1.521l0.269-.692V69.184a1.428,1.428,0,0,1,.824-0.967c0-.712.275-0.436,0.275-1.243a6.154,6.154,0,0,1,.848-2.523c0.231-.248.25,0.013,0.25-0.445,0-.279-0.082-0.345.206-0.345h0.344c0.477,0,.209.277,0.687,0.277a1.982,1.982,0,0,1,.687.137c0.357-.241.2-0.24,0.442-0.258,0.449-.033.2-0.521,0.116-0.884a13.61,13.61,0,0,0-.832-2.448V59.931q-0.006-.142-0.012-0.283l0.119-.262q-0.191-.97-0.381-1.94a1.513,1.513,0,0,1-.359-1.008L56.467,57,57,57.132l0.694-.1a5.116,5.116,0,0,1,1.374-.691,0.8,0.8,0,0,1,.418.385l0.973,0.188,0.33-.325,0.447-1.082,0.169-.685V52.613c0-.088,0-0.176-0.008-0.263l-1.091-.565a5.2,5.2,0,0,1,.412-2.21c0.95,0.639.74,1.3,1.923,1.933h0.55c0.387,0,.254.059,0.426,0.222a5.249,5.249,0,0,0,2.564.26l1.268-.482c0.33-.5.768-0.749,1.1-1.242,0.349-.519.528-0.915,0.872-1.472a29.213,29.213,0,0,1,2.012-2.672c0.684-1.164,1.249-1.035,1.77-2.64a4.279,4.279,0,0,0,.29-1.5c0-3.046-.824-4.463-0.824-7.32V33.417a25.164,25.164,0,0,0-.912-2.674,10.137,10.137,0,0,1-1.286-2.3c-0.56-.15-1.4-1.328-2.2-1.792-0.71-.917-1.068-1.8-2.2-1.8-0.411.2-1.733,0.65-2.018,0.871a4.454,4.454,0,0,0-.73,2.3H62.5l-0.282,0-0.13-.416H61.542c-0.719,0-1.575,2.516-1.768,3.193a17.156,17.156,0,0,1-.566,1.918c-0.242.578-.341,1.493-0.551,1.931q0.006,0.349.012,0.7c-0.525.947-.424,3.173-0.424,4.136,0,0.093.005,0.187,0.008,0.28l-0.282.548-0.519-.006-0.123-.685Q57.3,39.42,57.272,39.21l0.149-.269V38.665c0-1.106-.127-2.137-0.149-3.184l0.149-.268V34.107A1.5,1.5,0,0,0,56.46,33c0.07-.838,1.16-1.1,1.72-1.585a2.929,2.929,0,0,0,1.3-2.006c-0.414-.111-0.3,0-0.424-0.374l-1.085-.311L57.284,29c0.153-.229.344-0.478,0.5-0.738a6.766,6.766,0,0,0,.322-0.918V26.927a0.9,0.9,0,0,0-.687-0.829H56.734a7.606,7.606,0,0,0-1.89,1.139,20.688,20.688,0,0,1-1.681,1.348H52.888c-0.253-.53-0.535-1.591-1.1-1.795,0.01-.139.019-0.279,0.029-0.418l-0.166-1.1c0-.187-0.008-0.374-0.012-0.56l0.149-.268c-0.007-.137-0.014-0.274-0.021-0.409l-0.28-.929-0.8-.458V21.679a6.423,6.423,0,0,1,.7-0.969q-0.142-.552-0.285-1.1H50.827v-0.69a11.035,11.035,0,0,0,2.7-1.156,21.8,21.8,0,0,0,2.111-1.745,2,2,0,0,0-.138-0.691c-0.473-.127-0.363-0.276-0.55-0.276H54.4a5.832,5.832,0,0,0-.917.322c-0.163.108-.547,0.439-0.766,0.611a2.977,2.977,0,0,1-1.615,1c0.391-.586.678-0.416,0.824-0.967,1.6-.377,2.11-1.825,3.109-2.1L55.772,12.7V12.426a0.929,0.929,0,0,0-.549-0.69c-0.466,0-3.548,2.59-3.846,3.038-0.537.045-.417-0.084-0.549,0.414l-2.615-.03-1.232.168a13.754,13.754,0,0,0-1.111,2.493l0.149,0.269c-0.632.948-3,1.614-4.121,2.21v0.691a1.718,1.718,0,0,0,.687.275l0.969,0.012,0.267-.149L44.64,21.1l1.517-.391h0.687c-0.584,1.11-.566,2.347-0.962,3.177,0,0.232.008,0.465,0.012,0.7l-0.149.269v0.277c0,0.094.008,0.189,0.012,0.283l-0.112.262,0.1,0.7a3.673,3.673,0,0,0,.55.415,1.184,1.184,0,0,0,.524-0.149l0.163-.4V25.684a0.527,0.527,0,0,1,.55-0.552c-0.007.367-.015,0.737-0.022,1.1q0.079,1.036.159,2.07v0.829a4.231,4.231,0,0,0,.412,1.934,1.181,1.181,0,0,0,1.258-.418l-0.3-1.239V25.821q0-.205.008-0.41l0.13-.418c-0.617-1.293-.211-0.876.534-1.237l0.318,0.933,0.247,0.3c0.388,0.032.55,0,.55,0.415v0.551a1.136,1.136,0,0,0,.442.7L51.1,27.2v0.553c0.059,0.123.687,1.889,0.687,1.933a4.609,4.609,0,0,1-.8,1.272,9.315,9.315,0,0,1-.718,1.488c-0.773.949-1.346,1-2.058,2.351V35.35a4.165,4.165,0,0,0,1.246.579l0.4-.164h0.55a3.9,3.9,0,0,1,1.648-.552c-0.309.646-.437,1.687-0.687,2.209v1.243c0,0.093,0,.185,0,0.277l-0.827,1.795V41.7l0.037,0.545,0.1,0.7a7.862,7.862,0,0,0-2.044.569c-0.57.185-1.8,0.251-1.8,0.95v0.414c0,0.616,1.106,1.047,1.786,1.1a1.013,1.013,0,0,0,.684.683l0.415-.131a7.429,7.429,0,0,1-1.206,2.516,9.4,9.4,0,0,0-.574,1.219c-0.361.666-.765,0.4-0.967,0.96h-0.55c-0.822,0-1.519-.831-2.755-0.816l-0.267-.15c-0.67.011-1.234-.138-1.923-0.138a2.212,2.212,0,0,0-1.1-.276H39.975q-0.015-.486-0.03-0.971l0.168-1.238h0.549a1.535,1.535,0,0,0,.55-1.1h0.274c0-1.426-.469-0.861-0.873-1.608-0.323-.6-0.486-1.157-0.775-1.706V42.807c-0.212-.4-0.344-0.673-0.55-1.1,0.012-.585-0.375-0.113-0.375-0.723a77.155,77.155,0,0,1-.163-8.123L38.6,32.589c0-1.631-.216-3.2-0.216-4.579a69.8,69.8,0,0,1,.12-17.226l0.149-.269V9.134l0.012-1.111-0.057-.1c0.029-.249-0.029-0.5,0-0.748a0.5,0.5,0,0,0-.025-0.4l-0.053-.1-0.006-.228A2.521,2.521,0,0,0,38.45,5.96a8.911,8.911,0,0,1,.289-2.785V2.9l0.027-.271L38.7,1.655V1.1c-0.384-.8.316-0.665-0.511-1.1H37.777a0.5,0.5,0,0,0-.2.426V0.837a1.049,1.049,0,0,0-.55.691V1.8l-0.2,1.93L36.678,4V5.8a1.171,1.171,0,0,0,.793.834L37.64,7.318a17.428,17.428,0,0,1,0,6.075c-0.551,9.77.192,18.565,0.412,27.758v0.691a10.505,10.505,0,0,0-1.1,2.21H36.678c-0.086,1.037-1.1,1.938-1.1,2.347v0.415a1.871,1.871,0,0,0,.275.686l1.133,0.152-0.463,1.513,0.164,0.55-0.276,1.1,0.266,1.521a1.719,1.719,0,0,0,.687.276,1.211,1.211,0,0,0,.962-1.1c0.475,0.128.5,0.24,0.55,0.829h0.687a0.527,0.527,0,0,1,.549.551c1.059,0.089,1.189,1.934,2.473,1.934l0.956-.062,1.088-.071,0.212,0.478,0.637,0.592,0.542,0.168a1.189,1.189,0,0,0,.962-1.381h0.412a1.4,1.4,0,0,0,.824-0.275V53.441l1.016,0.009q-0.17.9-.341,1.794l0.149,0.269v2.624a2.957,2.957,0,0,0,.412.829v1.657l0.028,0.685,0.247,1.111c-0.4.76-.109,0.345-0.824,0.69H48.492l-0.543.055-0.968.084V62.694h0.275V62.141a9.717,9.717,0,0,0-.537-1.653l0.262-.833a2.675,2.675,0,0,0-.824-1.1c-0.435,0-.468.34-0.556,0.722l-0.656-.125-0.437.231v0.277c0,0.553.37,0.333,0.788,0.545l-0.117.734-0.66-.305-0.434.552,0.149,0.269c-0.169.142-.137-0.225-0.137,0.276v1.1c-0.76,1.444-1.434,2.968-2.2,4.419v0.276c0,0.528.042,0.051-.157,0.456L40.8,67.527H39.975a0.53,0.53,0,0,1-.55-0.553V66.836q0-.274-0.008-0.549l-0.147-.423,0.154-.547c0.252-.067,2.212-1.527,2.6-1.792l-0.135-.4-0.544-.154c0.18-.677.879-0.718,1.374-1.657a3.037,3.037,0,0,0-1.545,1.07c-0.161.157-.27,0.217-0.376,0.312-0.258.232-.036,0.112-0.305,0.383a1.212,1.212,0,0,1-1.04.3l-0.167-.545a2.011,2.011,0,0,0,.137-0.691V61.864c0.635-.337,1.2-0.814,1.969-1.2a7.431,7.431,0,0,0,1.882-1.429l-0.142-.689h-0.55c-0.306,0-1.165,1.107-2.335,1.381-0.14.53-.223,0.412-0.824,0.553l-0.024-1.8a14.341,14.341,0,0,1,.325-3.185l-0.163-.4V54.684a0.588,0.588,0,0,0-.412-0.552,1.348,1.348,0,0,0-.656.835,16.746,16.746,0,0,0-.306,3.722v0.828Q38.195,60,38.2,60.491a1.365,1.365,0,0,0-.149.822,0.753,0.753,0,0,1-.275.551c-1.163.1-2.262,1.907-3.434,1.934a14.248,14.248,0,0,0-1.188-2.12c-0.406-.761-0.793-1.312-1.193-2.115-0.435-.872-0.6-1.372-1.1-2.206a18.278,18.278,0,0,1-.912-2.535,36.056,36.056,0,0,1-.854-8.053l0.261-.34c0.274-.318-0.742-1.317-1.231-1.926-0.515-.554-0.591-1.075-1.474-1.28C26.5,42.5,25.586,42.078,24.99,41.7c0.286-.516-0.279-2.418-0.255-3.311l-0.282-.548H24.177a0.528,0.528,0,0,0-.55.553,0.939,0.939,0,0,1-.664-0.9,0.282,0.282,0,0,0-.142-0.286,4.374,4.374,0,0,0-1.1-.821,0.175,0.175,0,0,0-.264.082,1.021,1.021,0,0,0-.18.691,0.868,0.868,0,0,1,.149.545v0.414c0,0.139,0,.275,0,0.413l0.546,1.383V40.6a0.879,0.879,0,0,1,.137.553c0.009,0.083.018,0.165,0.027,0.248l0.247,0.3h0.275a0.8,0.8,0,0,1,.962.552v0.691a1.339,1.339,0,0,1-.55.828c-0.416,0-.614-1.1-1.236-1.1a0.856,0.856,0,0,0-.549.138,1.883,1.883,0,0,0-.687-0.69,0.822,0.822,0,0,0-.412.829q0,0.883.008,1.765c0.094,0.285.361,0.113,0.542,0.169v0.275c0.017,1.2-.412,2.382-0.412,3.591-0.009.228-.018,0.456-0.027,0.685-0.082.323-.165,0.648-0.247,0.973v0.414c0,0.136,0,.275-0.006.412l-0.269.693v0.829q-0.017.2-.034,0.4L19.232,54.96v0.552q0.006,0.557.012,1.113l-0.149.268v1.243a1.32,1.32,0,0,0,.113.33,0.886,0.886,0,0,0,.711.912l0.267,0,0.282-.548c0-.627-0.286-1.109-0.275-1.657q0-.164.009-0.329a0.3,0.3,0,0,0-.049-0.186L20.122,56.6l-0.036-.065a0.241,0.241,0,0,1-.03-0.167V55.65a0.834,0.834,0,0,1,.687-0.828h0.275a2.764,2.764,0,0,0,1.2-.861,5.045,5.045,0,0,0,.581-1.487c0.013-.18.025-0.362,0.038-0.542l0.374-1.391c0.01-.181.021-0.363,0.031-0.545L23.9,47.365V46.95l-0.008-.28,0.241-.559,0.324-1.505,0.13-.417a0.33,0.33,0,0,1,.542,0,0.556,0.556,0,0,1,.294.555l-0.149.269a3.485,3.485,0,0,0-.07,1.056c0.913,4.579.345,9.951,0.345,14.688v0.414c0,0.091,0,.182.008,0.273q0.065,0.208.13,0.416a7.582,7.582,0,0,1-1.162-2.411,0.621,0.621,0,0,0-.221-0.458,1.6,1.6,0,0,0-.773-0.536c-0.284-.065-0.328-0.106-0.307.191a0.846,0.846,0,0,0,.41.777c0.04,0.028.082,0.058,0.13,0.089v0.277A13.248,13.248,0,0,0,25,63.107c0.628,0.742,1.14,2,2.061,2.624a20.529,20.529,0,0,0,1.786,1.8,8.085,8.085,0,0,1,.687,1.381v1.38c0.451,0.945.531,2.319,1.1,3.454a14.574,14.574,0,0,0,.793,1.55,6.456,6.456,0,0,1,.993,1.349v0.277q-0.006.487-.012,0.974l0.149,0.269v0.276q0,0.206-.006.412l-0.269.694c0,0.182,0,.366-0.006.549l-0.269.694V81.06a8.309,8.309,0,0,1-.541,2.493,2.7,2.7,0,0,0-.283,1.028v1.036c0,0.091,0,.182.008,0.273l0.149,0.376,0.942,0.456h1.1c0.335-.162,1.786-0.805,1.786,0V86.86c0,0.094,0,.189,0,0.284l-0.415.13c-0.043.162-.137,0.376-0.137,0.414a1.733,1.733,0,0,0,.275.69V89.07c-0.475.9-.6,1.949-1.1,2.9v0.553a16.334,16.334,0,0,0-1.1,2.9c0.487,0.925,1.2,1.153,1.6,1.977a16.122,16.122,0,0,1,1.693,4.651q-0.006.487-.012,0.974l0.149,0.269v0.691q0.014,0.342.028,0.683a35.281,35.281,0,0,1,.8,8.292q0.006,1.248.012,2.494l-0.149.269v2.209c0.182,0.381.3,0.725,0.5,1.156,0.183,0.4.455,0.518,0.737,1.053v0.277l-0.012.7,0.149,0.268c0,1.4-.339,3.727.275,4.834q-0.006.35-.012,0.7l0.149,0.269q0.016,0.342.033,0.683l0.379,1.664-0.012.7,0.149,0.269-0.012.56,0.149,0.269,0.028,0.821,0.247,0.974v1.52c-0.185.386-.06,0.69-0.55,0.69H38.189a1.207,1.207,0,0,0-.961.828v0.415l0.024,0.407,0.113,0.559c-0.988-.265-2.538-3.174-3.572-3.452a9.146,9.146,0,0,1-.412-1.243l0.076-.276L33.4,132c-0.037-.4-0.13-0.2-0.377.026a4.416,4.416,0,0,1-.788.64c-0.611.339-1.089,0.346-1.606,0.595h-0.55a30,30,0,0,1-4.235,1.541l-0.443.5-0.542.167H24.452l-0.969.012-0.268-.149-1.656-.012-0.267.149H19.369c-0.7,0-.807-0.188-0.97.529l-1.229.438H16.759l-0.282-.012-0.268.151H15.935l-0.831-.013-0.268.15H14.424c-0.525,0-.05.043-0.412-0.137a6.5,6.5,0,0,1-2.352,1.5,22.751,22.751,0,0,0-2.868.984H7.83c-0.508.271-1.157,0.35-1.517,0.546a11.7,11.7,0,0,1-1.23.835,0.726,0.726,0,0,1-.407-0.4l-0.829.259H2.61l-0.544.017-0.829.259H0.687a1.886,1.886,0,0,0-.687.277v0.414a0.337,0.337,0,0,0,.412.413l0.4,0,0.166,0.928,0.67,0.313H2.335l0.273,0,0.938-.421,0.163-.4h0.55a13.2,13.2,0,0,1,.824,1.1H5.495a31.479,31.479,0,0,0,4.258-2.209v-0.415a8.954,8.954,0,0,1-.4-0.931l1.628-.317-0.537,1.248v0.415l-0.022.29,0.438,0.657,0.408,0.157a0.541,0.541,0,0,1,.412-0.138h0.412c0.731-1.1,2.609-2.105,3.849-2.744l2.058-.3h0.412a1,1,0,0,1-.424.837l0.149,0.269c-0.654,1.241-.863.752-1.374,1.519H16.347a10.672,10.672,0,0,0-1.1,1.381v0.553c0,0.572.859,0.827,1.511,0.827v-0.275h0.412a11.772,11.772,0,0,1,.961-1.244,2.506,2.506,0,0,1,1.237-1.105v-0.551a10.559,10.559,0,0,0,2.436-1.971,10,10,0,0,1,2.647-1.758c-0.092,1.106-1.923,1.946-1.923,2.624v0.552c0.431,0.229.714,0.229,1.1,0.415H24.04c0.021,0,1.967-1.793,2.061-1.934h0.412c0.422-.634.786-0.478,0.962-0.967h0.412v-0.276c0.521-.043,1.031-0.514,1.791-0.689l-0.142.689a3.887,3.887,0,0,0-1.236,1.657c-0.743.2-1.687,1.962-2.722,2.219l-0.163.405a5.175,5.175,0,0,0,1.236,1.658,1.522,1.522,0,0,0,.549-0.139c0.055-.66.112-0.5,0.672-0.7a2.286,2.286,0,0,1,.976-0.4c0.6-.9,2.183-1.361,2.335-1.934a1.416,1.416,0,0,0,.962-0.552h0.549l0.006-.251,1.367-.3v0.415a4.368,4.368,0,0,1-.857,1.348,6.717,6.717,0,0,0-.791,1.552,2.411,2.411,0,0,0,.687,1.933c0.606,0.051.6,0.276,0.962,0.276h0.687c0.4-.19,2.014-0.54,2.593-0.708,0.42-.121,2.126-0.635,2.49-0.81H40.8l0.282,0.011,0.267-.15c0.568,0.274,1.136.345,1.786,0.691h0.275c0.387,0,.254-0.061.424-0.225l1.774-.466h0.412l0.4-.027,1.657-.525c1.309,0,2.69.414,4.121,0.414,0.554,0,.06.025,0.272-0.131l0.409,0.1,0.968-.248h0.687l0.694,0.012,0.267-.15,0.694-.012,0.267,0.15h0.55c0.508,0.245.671,0.3,0.794-.228l-0.382-.325c-1.05-.023-2.072-0.691-2.61-0.691l-0.438-.009,0.163-.4a0.724,0.724,0,0,1-.275-0.553,1.722,1.722,0,0,1,.824-0.828c0.054-.651,1.252-1.663,1.68-2.178,0.457-.551,1.736-1.517,1.892-2.1,0.871-.2.785-0.814,1.372-1.245a4.32,4.32,0,0,0,1.239-1.379,1.04,1.04,0,0,0,1.1-.691l0.364-.03,0.323-.384c-0.067.806-.934,0.95-0.963,2.208l-0.548.278c-0.125,1.51-2.885,2.371-2.885,3.728,0,0.532.4,0.548,0.55,1.1h0.55c0.7,0,4.561-5.584,5.495-6.213-0.239.9-.88,0.811-0.962,1.795a1.192,1.192,0,0,0-.687,1.1H63.328V136.3a1.957,1.957,0,0,0,1.236,1.243h0.687a12.718,12.718,0,0,1,1.132-1.624,3.739,3.739,0,0,1,1.341-1.414v-0.414a1.98,1.98,0,0,1,.824-0.276V133.4a1.776,1.776,0,0,0,1.068-.721,12.452,12.452,0,0,1,1.13-.8,28.453,28.453,0,0,1-1.513,2.484,15.047,15.047,0,0,0-1.234,2.9,1.91,1.91,0,0,0,.557.978l0.268-.15v0.276h0.962a6.215,6.215,0,0,1,2.61-3.727c0-1.422,2.5-1.7,2.61-3.039h0.55a9.106,9.106,0,0,1,3.3-2.072c-0.2.75-.763,0.632-0.962,1.381-0.849.071-1.571,1.372-2.284,1.847a7.831,7.831,0,0,0-1.974,2.159c0.152,0.655.02,0.772,0.687,0.827a0.452,0.452,0,0,0,.55.415,16.2,16.2,0,0,0,2.246-1.885,14.508,14.508,0,0,0,2.287-1.843H79.95a3.058,3.058,0,0,1,1.511-.553,15.883,15.883,0,0,0-2.336,2.624v0.553c0.392,0.743.686,0.582,0.824,1.1h0.687c0.4,0,.87-0.937,2.178-0.983l0.295-.4a15.074,15.074,0,0,0,1.648-.69,2.52,2.52,0,0,0,1.236,1.38h2.473l1.931,0.012,0.267-.149h1.373l0.272-.008,0.415-.131A1.907,1.907,0,0,0,93,134.5v-0.138A1.012,1.012,0,0,0,92.58,133.705Zm-7.3-51.011c-0.526-.347-0.65-0.1-0.8-0.666a0.7,0.7,0,0,0,.687-0.277l0.262,0.832Zm0.16-10.749V72.5c-0.083.174-.364,1.035-0.412,1.244l-0.4-.3,0.383-1.226q0.006-.275.012-0.549V71.394a0.754,0.754,0,0,0-.275-0.553,2.634,2.634,0,0,0,.137-0.829V69.6H85.17l0.254,0.837c0.007,0.09.014,0.179,0.021,0.268v1.243Zm-1.236-6.629a1.414,1.414,0,0,1,.824-0.967c0.353,0,.824,1.566.824,2.072v1.242a5.436,5.436,0,0,1-1.648-2.208V65.317ZM82.99,77.389c0-.537-0.036-1.407.368-1.477l0.576-.1c0.09-.354.209-0.415,0.687-0.415a0.4,0.4,0,0,1,.3.366,7.15,7.15,0,0,1-.163,1.844v0.276a1.507,1.507,0,0,0-.275.967,2.108,2.108,0,0,1-.515-0.889c-0.046-.2-0.006-0.2-0.19-0.294l-0.209-.106a0.3,0.3,0,0,0-.369-0.016C82.943,77.648,82.989,77.658,82.99,77.389Zm-4.413-9.172c0.042,0.508.044,0.51,0.549,0.553a1.01,1.01,0,0,1-.824,1.1H77.752A2.119,2.119,0,0,1,78.576,68.217ZM59.344,54.407v0.138a0.53,0.53,0,0,1-.55.553h-0.55V54.27c0.026-.371.051-0.74,0.076-1.111l0.061-.408a0.542,0.542,0,0,0-.137-0.414c0.563,0.2.831,1.286,1.1,1.795v0.276Zm-1.1-10.91c0.309,0,.914,2.511,1.1,2.9v1.934l-0.168.824c-0.657-.072-0.717-0.921-1.038-1.408a11.86,11.86,0,0,1-1.4-3.008A9.317,9.317,0,0,1,58.245,43.5ZM33.35,84.922c-0.357-.028-0.519.007-0.519-0.41l0.024-.408c0.124-.476.034-0.549,0.526-0.559A3.144,3.144,0,0,1,33.35,84.922ZM12.819,139.034l-0.467-.8a7.852,7.852,0,0,1,1.248.269C13.473,138.985,13.361,139.011,12.819,139.034Zm7.486-.674c-0.511-.035-0.392.093-0.524-0.405l0.679,0ZM73.723,69.691c0.441-.868,1-2.524,1.693-2.992V66.284c0.633-.426.383-0.9,1.236-0.967a1.537,1.537,0,0,1,.138.553v0.414c-0.214.449-.512,1.45-0.736,2.022-0.236.6-.526,1.259-0.775,1.844a27.817,27.817,0,0,1-1.511,3.866,12.619,12.619,0,0,1-1.786-1.381C71.982,72.5,73.511,70.108,73.723,69.691ZM71.158,65.18a1.714,1.714,0,0,1,.962,1.1v0.552c-0.055.182-.111,0.364-0.167,0.545-0.128.046-.257,0.093-0.385,0.138l-0.409-.13V65.18ZM71.033,77.891c0-.187-0.008-0.373-0.012-0.559,0.359-.752.229-2.252,1.1-2.486a9.063,9.063,0,0,1,.412,1.243,1.683,1.683,0,0,1,.687.967c-0.447.669-.557,0.29-1.1,1.38-0.311.626-.428,1.255-0.687,1.8v1.519l-0.168.544-0.633.587c-0.2-.39-0.161.088-0.161-0.44V80.922l0.149-.269A7.515,7.515,0,0,1,71.033,77.891Zm-2.239-8.15,0.3,0c0.5,0.125,1.374.436,1.374,1.105,0,0.509-.412.54-0.412,0.966v0.829l0.282,0.548-0.317,1.378-0.36.3c-0.085.366-.171,0.73-0.256,1.1-0.012.18-.024,0.361-0.036,0.542L69,77.894c-0.013.181-.025,0.361-0.038,0.542l-0.53,2.077c-0.006.182-.013,0.364-0.02,0.547a4.5,4.5,0,0,0-.138,1.8l0.319,1.233a3.284,3.284,0,0,0,.611.6,5.072,5.072,0,0,0,.857.381h0.412a3.433,3.433,0,0,0,.962-0.413h0.275a0.836,0.836,0,0,1,.687.69v0.276a3.67,3.67,0,0,1-.687,1.243c0.18,0.364.138-.114,0.138,0.415a5.715,5.715,0,0,1-1.511,1.657v0.415L69.4,90.2c-0.066-.175-0.992-2.009-1.123-2.24-0.36-.632-1.514-1.237-1.514-1.655V85.893l-0.282-.548,0.137-.421c0.021-1.141.161-2.306,0.145-3.45,0.05-.089.1-0.179,0.149-0.268-0.057-5.451-1.248-4.306-1.248-9.951V70.979a0.481,0.481,0,0,0,.019-0.608c-0.137-.322-0.243-0.579.164-0.686l0.235-.062C67,69.568,67.888,69.757,68.794,69.741Zm-4.5-4.424,0.268,0.114,0.956-.295-0.257.736c0,0.091,0,.183,0,0.274v0.277l0.163,0.4c0.642,0.066.7,0.7,1.074,0.7a1.6,1.6,0,0,0,.549-0.138v0.553H66.488Q66,67.9,65.52,67.858a8.428,8.428,0,0,0-1.093.084H64.152c-0.089.049-.178,0.1-0.267,0.15a0.883,0.883,0,0,1-.694-0.7C63.65,67.05,63.853,65.974,64.29,65.317Zm0,14.776a0.338,0.338,0,0,1-.412.277,1.34,1.34,0,0,1-.55-0.828c0-.321.029-0.287,0.163-0.35,0.168-.079.13-0.027,0.213,0.147,0.038,0.079.077,0.159,0.115,0.24l0.059-.314A0.8,0.8,0,0,1,64.29,80.093Zm-5.22-7.319V72.5c0-.358-0.092-0.142-0.137-0.69,0.589-.883.738-2.1,1.511-3.038A1.061,1.061,0,0,0,61,67.693l0.679-.171c0.649,1.363.017,2.182,1.924,2.629-0.052.631-.168,0.676-0.824,0.691L62.5,70.289l-0.684-.144a16.915,16.915,0,0,0-1.578,2.01,8.288,8.288,0,0,0-.789,1,1.157,1.157,0,0,1-.931.859A7.024,7.024,0,0,0,59.069,72.774Zm-1.236,9.805H58.52a5.01,5.01,0,0,1-1.374,1.242C57.319,83.171,57.683,83.145,57.833,82.579ZM55.5,77.193c0.384,0.14.365,0.127,0.412,0.69H55.5v-0.69Zm-2.747-4.005a2.158,2.158,0,0,0,1.511-.828l0.412,0.045c0.038,0.171.075,0.343,0.113,0.513,0.008,0.137.016,0.272,0.024,0.409a0.431,0.431,0,0,1-.381.459c-0.409.111-.443-0.01-0.443,0.438v0.206c0,0.5-.032.135,0.137,0.277-0.18.364-.137-0.114-0.137,0.413v2.624c0.05,0.091.1,0.18,0.149,0.269l-0.012.974,0.149,0.269-0.012.284v0.413c0.055,0.134.109,0.27,0.163,0.405l-0.175.278c0,0.141.008,0.281,0.012,0.421v0.553a9.218,9.218,0,0,0-.55,1.519,9.789,9.789,0,0,0-1.374,1.657v0.553a13.142,13.142,0,0,1,.55,1.242,0.971,0.971,0,0,1-.824.415L51.8,86.165c0-.182-0.008-0.366-0.013-0.548L51.4,84.367c-0.093-1.532-.025-2.575-0.025-4.135l0.149-.269q-0.006-.349-0.012-0.7,0.074-.135.149-0.268a4.74,4.74,0,0,0-.581-1.892c-0.289-.663-1.047-1.123-0.255-1.707V74.846l0.473-.5A2.544,2.544,0,0,0,52.751,73.188ZM49.316,53.3L49.2,52.194l0.137-.4L50,51.231c0.9-.019.6-0.243,1.236-0.413v0.413q-0.035.624-.071,1.249c-0.022.136-.044,0.273-0.066,0.409v0.277l-0.163.4a3.978,3.978,0,0,0-1.211-.266H49.316ZM48.492,76.641l0.071,1.249,0.066,0.27v0.415L48.8,79.118a10.22,10.22,0,0,1-1.266-1.925A0.881,0.881,0,0,1,48.492,76.641ZM38.6,71.394h0.962c1.187,0.26,2.153.673,3.293,0.852a0.9,0.9,0,0,0,.965.391,0.754,0.754,0,0,1,.275.552V75.4l-0.149.269q0.006,0.349.012,0.7v0.275l-0.282.548c0,0.093.005,0.187,0.008,0.28v0.553c0,0.48.275,0.211,0.275,0.69v1.8l0.167,0.544a1.6,1.6,0,0,0,.794.421,1.577,1.577,0,0,0,.55-0.138,0.766,0.766,0,0,1,.412-0.69c0.428,0,1.938,2.024,2.061,2.486h0.687l0.705,1.232c0,0.9.394,1.476,0.394,2.22v1.243a5.913,5.913,0,0,1-.824.139c-0.559,0-.248-2.211-1.237-2.211-0.95,0,.275.8-1.1,0.829l-0.163.406c-0.7-.185-0.829-0.781-1.486-0.958V85.48A6.4,6.4,0,0,1,44.1,84.1c0-.213.55-0.478,0.55-0.691a2.73,2.73,0,0,0-1.236-1.242l0.169-1.792q-0.016-.692-0.032-1.384l-0.591-.361-0.233-.053H42.585a0.538,0.538,0,0,1-.412-0.139L41.9,78.6a5.131,5.131,0,0,1-.556,1.5c-1.067-.335-1.551.415-1.511-1.381l-0.546-.283-0.685.177c-0.129.1-.259,0.2-0.388,0.292l-0.35-1.418,0.59-.294,0.279,0.007c0.538,0,.015-0.209.824-0.276a0.757,0.757,0,0,0,.275-0.552,1.063,1.063,0,0,0-.55-0.553,5.641,5.641,0,0,0-.824-1.8V73.6l0.257-.834c0.006-.182.012-0.365,0.018-0.547a4.319,4.319,0,0,1-.412-0.691H37.919c-0.057-.227-0.114-0.455-0.17-0.682l0.3-.007C38.2,71.418,38.113,71.134,38.6,71.394Zm3.015,33.561-0.093-.7,0.117-.54-0.154-.42v-0.276c0-.363.044-0.284,0.27-0.027a8.47,8.47,0,0,1,.967,1.961v0.276a1.678,1.678,0,0,1-.337,1c-0.288.348-.347,0.252-0.471-0.083-0.031-.085-0.063-0.17-0.094-0.253l0.1-.379ZM37.777,82.441c-0.29.609-.2,1.179-0.962,1.243,0.042-.5.162-1.381,0.687-1.381C37.521,82.3,37.774,82.439,37.777,82.441ZM35.991,66.56q-0.086-.687-0.172-1.376l-0.24,0c0.024-1.079.458-.519,0.687-1.381a5.028,5.028,0,0,0,1.648-.828v0.967c0.05,0.088.1,0.179,0.149,0.268q-0.006.212-.012,0.421a3.241,3.241,0,0,1-.687,1.1H36.678l-0.456.8Zm3.3,51.371a1.247,1.247,0,0,0,0-.828v-0.415c-0.09-.188-0.824-2.166-0.824-2.209V114.2l0.163-.4c-0.624-1.889-.235-4.9-0.3-6.914-0.09-.23-0.179-0.462-0.269-0.693,0-.138,0-0.275-0.006-0.412a23.526,23.526,0,0,0-1.176-6.88l-0.2-.025L36.3,97.621q-0.015-.133-0.03-0.265V96.665c0.437-.831.361-1.8,0.687-2.486,0-1.927-.261-3.951-0.275-5.247,0-.479.275-0.211,0.275-0.691V87.55c0.729,0.061,1.046.849,1.786,1.243v0.691c0.05,0.09.1,0.18,0.149,0.268l-0.012.837v1.519l0.4,1.246q0.006,0.276.012,0.549v1.1c0.05,0.091.1,0.179,0.149,0.269,0,0.186-.008.372-0.012,0.56l0.4,1.108q0.006,0.205.011,0.41v0.552l-0.269.692c0,0.138,0,.275-0.006.412v0.414l-0.269.693c0,0.138,0,.275-0.006.412v3.315a6.225,6.225,0,0,1,.4,2.112c0.007,0.165-.074.373,0.111,0.373h0.172v0.415c0,2.07,1.511,4.054,1.511,6.076v0.415l0.149,0.268q-0.006.488-.012,0.974v0.415l0.163,0.4a10.946,10.946,0,0,0-.438,1.114v1.381c1.306,2.737,2.11,11.212,2.061,15.329v1.243l0.247,0.973,0.027,0.684v1.243a3.4,3.4,0,0,0-.55,1.656v0.145c0,0.408.05,0.408-.354,0.506a3.949,3.949,0,0,1-1.157.132l-0.17-.05c-0.337-.1-0.062-0.248-0.013-0.393a5.7,5.7,0,0,1,.537-0.923c0.019-.033.039-0.069,0.059-0.107a1.315,1.315,0,0,0,0-.828,1.785,1.785,0,0,0-.824-1.243,9.833,9.833,0,0,1-.275-2.071c0-.019.135-0.274,0.137-0.276l-0.149-.269,0.012-.284V131.6C40.364,129.275,40.712,120.636,39.288,117.931Zm12.489,23.346,0.074,0.254-0.072.4-0.408.132-0.681.169H50.14c-0.065,0-1.415-.716-1.648-0.828H47.668c-0.837.4-3.1,0.721-3.851,1.253l-1.232-.563H42.31l-0.419.011-0.277-.174-0.4.163-0.543.024-2.889.8-0.415-.13a1.024,1.024,0,0,0-.549-0.829c-0.6,0-.424.219-1.1,0.276a2.12,2.12,0,0,1-.859.656c-0.341.341-.055,0.864-0.652,0.864a0.339,0.339,0,0,1-.412-0.276,1.246,1.246,0,0,1,.687-0.967c0.06-.719,1.511-1.793,1.511-2.486v-0.414l0.022-.291-0.434-.677H35.03a1.409,1.409,0,0,0-.824-0.276h-0.55a3.541,3.541,0,0,0-1.1-1.38,1.34,1.34,0,0,0-.55.828v1.1c-0.678.16-1.425,0.65-1.923,0.692,0.157-.592,1.649-1.55,1.649-2.762l0-.846-0.964-.121c0-.359-0.257-0.276-0.549-0.276l-0.082-.13-0.01-.143a2.264,2.264,0,0,1,1.328-.417A0.789,0.789,0,0,0,32,134.665l0.556,0.114a23.021,23.021,0,0,0,1.545,1.76c0.3,0.313.516,0.519,0.825,0.828,0.364,0.364.43,0.657,0.713,0.94a14.839,14.839,0,0,0,1.809,1.5,11.911,11.911,0,0,1,2.113,1.191c0.984,0.021,1.545.552,2.885,0.552h1.1l0.008-.246,0.549-.18,0.269,0.153,0.96-.417h0.549c0.368-.178.682-0.2,1.1-0.415s0.6-.408,1.05-0.6c0.9-.386,1.516-0.457,2.384-0.919H50.69c0.505,0,.319.415,0.824,0.415H52.2l0.406-.024,0.556-.115A6.943,6.943,0,0,1,51.777,141.277Zm2.127-2.589-0.193-.739,0.848-.115Zm4.754-5.014a2.806,2.806,0,0,1-.824,1.244l-0.422-.006-0.4.833H56.46v0.277H54.674v-0.414a5.332,5.332,0,0,0,1.424-.641c0.635-.252.8-0.878,1.324-0.878h0.137l0.282,0a1.738,1.738,0,0,1,1.366-.693C58.887,133.837,59.3,133.606,58.657,133.674Zm1.444-.791c-0.113-.065-0.11-0.076-0.157.041l-0.076.189H59.314l0.143-.551,0.439,0,0.405-.014C60.195,132.9,60.315,133,60.1,132.883Zm0.48-12.466v0.553a29.957,29.957,0,0,0-1.016,3.122,5.086,5.086,0,0,1-.49,1.578,3.221,3.221,0,0,1-1.242.824H57.558a1.566,1.566,0,0,1-.942.291c-0.1.134-.2,0.266-0.294,0.4a1.231,1.231,0,0,0-1.427,1.189,12.56,12.56,0,0,0-.634,2.125c-0.454.334-.154,0.15-0.412,0.691v0.552l0.008,0.273,0.13,0.418a0.816,0.816,0,0,1,.824.414c0,0.056-1.747,1.12-1.923,1.243-0.642.446-1.129,0.9-1.893,1.412-0.661.443-3.34,2.454-4.014,2.454H46.706c-0.5-.238-1.374-0.572-1.374-1.243,0-.591.549-0.6,0.549-1.1v-0.552a2.965,2.965,0,0,1-.412-0.829,0.743,0.743,0,0,0-.158-0.559l0.009-.554a8.734,8.734,0,0,0,.287-3.03l0.012-1.527-0.149-.269V125.8a37.707,37.707,0,0,0-1.116-8.683c-0.063-.309-0.67-1.805-0.67-1.812v-0.277c1.7-.906,1.039-0.506,1.786-2.072q0.014-.341.027-0.683l0.247-.973a8.957,8.957,0,0,0-.549-4.281v-0.276c0.043-1.042-.14-2.347-0.149-3.459l0.149-.27a74.871,74.871,0,0,1,.5-9.3c0.113-.926.366-1.055-0.265-1.755-0.535-.593-0.578-0.86.1-1.465,0.156-.14.173-0.231,0.37-0.151l0.264,0.107h0.275a1.268,1.268,0,0,0,.529-0.142q0.087-.394.174-0.789l0.531-.3c0.136,0.036.273,0.071,0.409,0.109l0.693-.254s0.256,0.137.275,0.137c0.525,0,.05.043,0.412-0.137,0.067,0.805.554,0.352,0.841,1.524l-0.18.556c0.486,1.206.39,3.279,0.85,4.687v0.552c0,0.089,0,.179,0,0.269l-0.553.313-0.373-.116a1.335,1.335,0,0,0-.818.229,2.441,2.441,0,0,0-.314.138l-0.322-.067c-0.217-.047-0.445-0.163-0.445.168,0,0.184.162,0.17,0.287,0.17h0.206q0,0.183,0,.366c0,0.189-.017.183,0.15,0.271l0.472,0.248,0.616,0.773a1.236,1.236,0,0,1,1.244.663l0.674,0.142,0.324-.069c0.317-.066.25-0.058,0.126-0.35l-0.162-.383c0.017-.053.033-0.106,0.05-0.16,0.091-.29.113-0.255-0.176-0.347L51.789,98.6V98.2c0-.216.044-0.153,0.246-0.18a0.569,0.569,0,0,0,.471-0.4c-0.29-.954.387-0.571-0.442-2.064V95.284c0-.389.059-0.256,0.275-0.415-0.093-.441-0.139-0.215,0-0.552a2.958,2.958,0,0,1-.412-0.829,6.372,6.372,0,0,0-.127-2.055l0.914-.51,0.449,0.217a3.14,3.14,0,0,0,.412.828,1.032,1.032,0,0,1-.52.975q-0.083.273-.167,0.545c0.244,0.462,1.338,1.8,1.923,1.8h0.275l0.27,0,0.554-1.1V93.9c0-.388.059-0.255,0.24-0.421l0.31-1.374q0.009-.274.018-0.547l0.282-.843-0.191-.432,0.3-.249a1.647,1.647,0,0,0-.542-0.653l-0.666.129-0.3.26-0.966-.139-0.805-.428-0.15-.964a6.9,6.9,0,0,0,1.682-.933C55.906,86.7,56.528,87,56.6,86.169c0.28-.5.987-0.774,1.656-1.668l0.163,0.07a0.269,0.269,0,0,0,.293.014c0.725-.453.995-1.742,1.712-1.6,0.161,0.03.052-.125,0.2-0.185a1.214,1.214,0,0,1,.648-0.357l0.542,0.038c1.143,0.166.906,0.636,1.853,0.432,0.163-.035.173-0.086,0.238,0.074l0.115,0.285v0.276q0.006,0.211.012,0.422l-0.161.261L63.878,85.2v1.38a9.819,9.819,0,0,0,.638,1.569,2.913,2.913,0,0,0,1.048,1.156,22.353,22.353,0,0,1,1.886,2.661,6.053,6.053,0,0,1-.137.829c-1.238.832-1.346,2.647-2.061,4v0.276q0.006,0.212.012,0.422l-0.149.269v0.414a4.508,4.508,0,0,0,.442,1.075c0.269,0.4.431,0.52,0.656,0.859,0.765,0.065.361,0.341,1.236,0.414-0.016.722-2.383,5.167-2.836,6.816-0.351,1.279-.812,2.439-1.127,3.7a31.713,31.713,0,0,0-.982,3.984c-0.411.782-.612,1.788-0.961,2.625-0.178.428-.306,0.816-0.5,1.29C60.825,119.463,60.779,120,60.581,120.417Zm7.006,7.043v-0.415c0.537,0.046.417-.083,0.55,0.415h-0.55Zm4.228,1.375c-0.734.07-.329,0.347-1.205,0.42,0.121-.253.436-1.381,0.687-1.381a1.692,1.692,0,0,1,.687.277Zm0.769-11.4c-0.168.5-.3,0.913-0.448,1.346a20.069,20.069,0,0,1-3.588,4.4q-0.066.416-.131,0.83a7.949,7.949,0,0,0-1.878,1.569,10.569,10.569,0,0,1-1.975,1.33H64.015c-0.977.519-2.023,0.849-3.022,1.38l-0.282-.548c0.022-.819.3-1.565,0.282-2.352,0.307-.644.43-1.575,0.734-2.3a14.583,14.583,0,0,0,.66-2.236c0.147-.6.447-1.618,0.65-2.247,0.253-.784.423-1.5,0.689-2.207a13.915,13.915,0,0,0,.836-2.2,16.678,16.678,0,0,1,.6-2.3,21.564,21.564,0,0,0,.829-2.066,17.378,17.378,0,0,1,.634-2.264v-0.552c0.365-.766.544-1.666,0.961-2.487a15.523,15.523,0,0,0,1.237-2.07l1.1-.287q0-1.03,0-2.061c0-.677-1.655-1.048-2.335-1.1a0.772,0.772,0,0,0-.55-0.69V97.908c0-1.207,1.189-3.407,1.648-4.28a3.316,3.316,0,0,1,1.144.645,1.681,1.681,0,0,1,1.054.736,3.413,3.413,0,0,1,1.374.415H74.73l0.4,0.163,0.4,1.637q0.012,0.342.023,0.685L75.8,98.88l0.027,0.409c-0.311,1.008-.239,2.754-0.7,3.582,0.013,1.069-.134,1.972-0.126,3.046v1.52l0.31,1.373a2.577,2.577,0,0,1,.24.7c0,0.433-1.819,4.3-2.112,5.2C73.137,115.636,72.9,116.476,72.583,117.43Zm5.031,10.858H76.79c-0.1-.417-0.079-0.828-0.55-0.828H75.417l0.147-1.217a4.115,4.115,0,0,1,1.639-.165h0.549a17.29,17.29,0,0,0,2.061.692C79.56,127.721,78.3,126.994,77.615,128.288Zm4.259,1.243a2.983,2.983,0,0,1,.961-1.243,5.207,5.207,0,0,1,.825.277A2.019,2.019,0,0,1,81.873,129.531Zm3.984,2.072v0.276a3.189,3.189,0,0,0-1.511.414v-0.276h0.275a2.384,2.384,0,0,1,1.172-1.554c0.315-.156.339-0.01,0.339-0.4s0.122-.247.444-0.123c0.613,0.236.794,0.548,1.342,0.694C87.776,131.168,86.523,131.588,85.857,131.6Zm-10.165,5.8a0.838,0.838,0,0,0-.55.966h1.374A1.309,1.309,0,0,0,75.692,137.4Zm-4.808,1.381a0.823,0.823,0,0,0-.68.69l0.164,0.822L71,140.881l0.426-.19,0.14-.391,0.008-.273v-0.553A0.78,0.78,0,0,0,70.883,138.784Zm-11.814,1.381c-0.179.364-.137-0.114-0.137,0.414v0.277c0,0.459.247,0.4,0.687,0.414v-0.414A0.852,0.852,0,0,0,59.069,140.165Zm7.968-1.244a6.549,6.549,0,0,0-.687.553c-0.077.925-.687,1.107-0.687,1.52a1.254,1.254,0,0,0,.824,1.1H66.9c0.35-.665.5-1.123,0.824-1.8v-0.69A0.783,0.783,0,0,0,67.037,138.921Zm-3.159-.552a8.383,8.383,0,0,1-2.335,2.487l-0.27-.694-0.28,0a0.781,0.781,0,0,0-.687.691v0.552c0.361,0.191.816,0.316,1.152,0.5a3.126,3.126,0,0,1,.446.381c0.16,0.1.313,0.145,0.463,0.226h0.549a15.917,15.917,0,0,1,.873-1.746,5.994,5.994,0,0,0,1.05-1.57,5.269,5.269,0,0,0-.275-0.828H63.878Z"/>
</svg>
